<svg xmlns="http://www.w3.org/2000/svg" viewBox="0 0 1280 500" width="1280" height="500" role="img" aria-label="R3L4Y — Itasha Corp">
  <defs>
    <pattern id="scan" patternUnits="userSpaceOnUse" width="1280" height="4">
      <rect width="1280" height="2" fill="transparent"/><rect y="2" width="1280" height="2" fill="rgba(0,0,0,0.16)"/>
    </pattern>
    <radialGradient id="vig" cx="50%" cy="48%" r="72%">
      <stop offset="0%" stop-color="transparent"/><stop offset="100%" stop-color="rgba(0,0,0,0.5)"/>
    </radialGradient>
    <linearGradient id="grid" x1="0" y1="0" x2="0" y2="1">
      <stop offset="0%" stop-color="#34d0a0" stop-opacity="0"/><stop offset="100%" stop-color="#34d0a0" stop-opacity="0.5"/>
    </linearGradient>
    <filter id="phos"><feGaussianBlur in="SourceGraphic" stdDeviation="0.7" result="b"/><feMerge><feMergeNode in="b"/><feMergeNode in="SourceGraphic"/></feMerge></filter>
    <filter id="soft"><feGaussianBlur stdDeviation="2.4"/></filter>
    <filter id="glow"><feGaussianBlur stdDeviation="2.6" result="b"/><feMerge><feMergeNode in="b"/><feMergeNode in="SourceGraphic"/></feMerge></filter>
    <filter id="sigilGlow" x="-70%" y="-70%" width="240%" height="240%"><feGaussianBlur in="SourceGraphic" stdDeviation="1.8" result="sb"><animate attributeName="stdDeviation" values="1.4;3.4;1.4" dur="3.6s" calcMode="spline" keySplines="0.4 0 0.6 1;0.4 0 0.6 1" repeatCount="indefinite"/></feGaussianBlur><feMerge><feMergeNode in="sb"/><feMergeNode in="SourceGraphic"/></feMerge></filter>
    <radialGradient id="sigilBloom" cx="50%" cy="50%" r="50%"><stop offset="0%" stop-color="#34d0a0" stop-opacity="0.28"/><stop offset="42%" stop-color="#34d0a0" stop-opacity="0.1"/><stop offset="100%" stop-color="#34d0a0" stop-opacity="0"/></radialGradient>
    <path id="ringPathOuter" d="M 0 -64 A 64 64 0 1 1 -0.01 -64" fill="none"/>
    <clipPath id="sc"><rect x="28" y="22" width="1224" height="452" rx="6"/></clipPath>
    <radialGradient id="glass" cx="36%" cy="22%" r="62%"><stop offset="0%" stop-color="#ffffff" stop-opacity="0.06"/><stop offset="55%" stop-color="#ffffff" stop-opacity="0"/></radialGradient>
    <pattern id="phosmask" width="3" height="1" patternUnits="userSpaceOnUse"><rect width="1" height="1" x="0" fill="#ff2a2a"/><rect width="1" height="1" x="1" fill="#2aff2a"/><rect width="1" height="1" x="2" fill="#2a2aff"/></pattern>
    <path id="ringPath" d="M 0 -38 A 38 38 0 1 1 -0.01 -38" fill="none"/>
    <radialGradient id="radarSweep" cx="0" cy="0" r="62"><stop offset="0%" stop-color="#34d0a0" stop-opacity="0.45"/><stop offset="100%" stop-color="#34d0a0" stop-opacity="0"/></radialGradient>
  </defs>
  <style>
    text { font-family: 'JetBrains Mono','SF Mono','Fira Code','Cascadia Code',Consolas,monospace; }
    @keyframes sweep { 0% { transform: translateY(0); } 100% { transform: translateY(452px); } }
    @keyframes flicker { 0%,96%,100% { opacity: 1; } 97% { opacity: 0.97; } 98% { opacity: 0.995; } }
    @keyframes bootReveal { 0% { opacity: 0; } 100% { opacity: 0.92; } }
    @keyframes curBlink { 0%,50% { opacity: 1; } 51%,100% { opacity: 0; } }
    @keyframes heartbeat { 0%,100% { transform: scale(1); opacity: 0.55; } 15% { transform: scale(1.3); opacity: 0.95; } 30% { transform: scale(1); opacity: 0.55; } 50% { transform: scale(1.1); opacity: 0.8; } }
    @keyframes edgeGlow { 0% { stroke-dashoffset: 3450; } 100% { stroke-dashoffset: 0; } }
    @keyframes phosphorBloom { 0%,100% { opacity: 0; } 50% { opacity: 0.02; } }
    @keyframes nodeBlink { 0%,100% { opacity: 0.9; } 50% { opacity: 0.35; } }
    @keyframes kanjiPulse { 0%,100% { opacity: 0.1; } 50% { opacity: 0.2; } }
    @keyframes rollBar { 0% { transform: translateY(-70px); } 100% { transform: translateY(540px); } }
    @keyframes dataBlink { 0%,100% { opacity: 0.12; } 50% { opacity: 0.7; } }
    @keyframes titleGlitch { 0%,90%,100% { transform: translate(0,0); } 91% { transform: translate(-2px,1px); } 94% { transform: translate(2px,-1px); } 97% { transform: translate(-1px,0); } }
    @keyframes okPulse { 0%,100% { opacity: 0.5; } 50% { opacity: 1; } }
    @keyframes linePulse { 0%,100% { opacity: 0.8; } 50% { opacity: 1; } }
    @keyframes titleBreathe { 0%,100% { opacity: 1; } 50% { opacity: 0.85; } }
    @keyframes crtBlank { 0%,90% { opacity: 0; } 91.5% { opacity: 1; } 97% { opacity: 1; } 98.6% { opacity: 0; } 100% { opacity: 0; } }
    @keyframes crtLine { 0%,89.5% { opacity: 0; transform: scaleY(1); } 90.4% { opacity: 0.95; transform: scaleY(0.03); } 91.4% { opacity: 0; transform: scaleY(0.01); } 97.4% { opacity: 0; transform: scaleY(0.02); } 98.2% { opacity: 0.95; transform: scaleY(0.08); } 99.2% { opacity: 0; transform: scaleY(1); } 100% { opacity: 0; } }
    @media (prefers-reduced-motion: reduce) { * { animation: none !important; } }
  </style>

  <rect x="0" y="0" width="1280" height="500" rx="14" fill="#0b0f12"/>
  <rect x="2" y="2" width="1276" height="496" rx="13" fill="#1a242b" stroke="#2a3a42" stroke-width="1"/>
  <line x1="24" y1="13" x2="1256" y2="13" stroke="#2a3a42" stroke-width="0.5"/>
  <line x1="24" y1="480" x2="1256" y2="480" stroke="#2a3a42" stroke-width="0.5"/>
  <rect x="28" y="22" width="1224" height="452" rx="6" fill="#070a0c"/>

  <g clip-path="url(#sc)">
    <g stroke="url(#grid)" stroke-width="0.6" opacity="0.5">
      <line x1="640" y1="332" x2="40" y2="474"/><line x1="640" y1="332" x2="220" y2="474"/>
      <line x1="640" y1="332" x2="400" y2="474"/><line x1="640" y1="332" x2="540" y2="474"/>
      <line x1="640" y1="332" x2="640" y2="474"/><line x1="640" y1="332" x2="740" y2="474"/>
      <line x1="640" y1="332" x2="900" y2="474"/><line x1="640" y1="332" x2="1060" y2="474"/>
      <line x1="640" y1="332" x2="1240" y2="474"/>
    </g>
    <g stroke="#34d0a0" stroke-width="0.5" opacity="0.2">
      <line x1="120" y1="392" x2="1160" y2="392"/><line x1="80" y1="430" x2="1200" y2="430"/><line x1="48" y1="464" x2="1232" y2="464"/>
    </g>
    <!-- ambient "the wired" data nodes -->
    <g fill="#34d0a0">
      <circle cx="360" cy="424" r="1.6" style="animation: dataBlink 2.6s ease-in-out 0s infinite;"/>
      <circle cx="700" cy="456" r="1.6" style="animation: dataBlink 3.1s ease-in-out 0.8s infinite;"/>
      <circle cx="980" cy="406" r="1.6" style="animation: dataBlink 2.4s ease-in-out 1.4s infinite;"/>
      <circle cx="498" cy="464" r="1.6" fill="#6ee0bd" style="animation: dataBlink 3.4s ease-in-out 2s infinite;"/>
    </g>
    <!-- CRT roll bar: soft band drifting down the screen -->
    <rect x="28" y="22" width="1224" height="46" fill="#34d0a0" opacity="0.035" style="animation: rollBar 7s linear infinite;"/>
    <rect x="28" y="22" width="1224" height="3" fill="#34d0a0" opacity="0.05" style="animation: sweep 9s linear infinite;"/>
    <rect x="28" y="22" width="1224" height="452" fill="#ffffff" opacity="0" style="animation: phosphorBloom 8s ease-in-out infinite;"/>

    <!-- ============================================================ -->
    <!-- CENTRAL ANIMATED DAEMON-SIGIL (SMIL — load-bearing motion)   -->
    <!-- Layered summoning circle: containment ring + graticule +     -->
    <!-- glyph/kanji band + faint kamea grid + odd-count bind-runes + -->
    <!-- per-repo M-15 0 L-3 0 M-6 -3 L-3 0 L-6 3 M3 0 L15 0 M12 -3 L15 0 L12 3 M0 -8 A8 8 0 1 0 0.01 -8 core glyph. Resting frame = assembled.-->
    <!-- ============================================================ -->
    <g transform="translate(640,300)" opacity="0.9" filter="url(#sigilGlow)">
      <!-- breathing wrapper -->
      <animateTransform attributeName="transform" type="scale" additive="sum" values="1;1.022;1" dur="5s" repeatCount="indefinite"/>
      <!-- summoned-seal bloom backdrop: makes the sigil read as the anchor -->
      <circle r="104" fill="url(#sigilBloom)"/>
      <!-- faint kamea (magic-square) grid behind center -->
      <g stroke="#34d0a0" stroke-width="0.5" opacity="0.2">
        <line x1="-26" y1="-26" x2="26" y2="-26"/><line x1="-26" y1="-9" x2="26" y2="-9"/>
        <line x1="-26" y1="9" x2="26" y2="9"/><line x1="-26" y1="26" x2="26" y2="26"/>
        <line x1="-26" y1="-26" x2="-26" y2="26"/><line x1="-9" y1="-26" x2="-9" y2="26"/>
        <line x1="9" y1="-26" x2="9" y2="26"/><line x1="26" y1="-26" x2="26" y2="26"/>
      </g>
      <!-- outer kanji band on its own wide ring (counter-rotates) -->
      <g>
        <animateTransform attributeName="transform" type="rotate" from="0" to="360" dur="60s" repeatCount="indefinite"/>
        <circle r="64" stroke="#34d0a0" stroke-width="0.5" fill="none" opacity="0.35"/>
        <text font-size="11.5" fill="#34d0a0" opacity="0.85" letter-spacing="2.2" font-family="'Noto Sans JP','Yu Gothic','Hiragino Sans',sans-serif">
          <textPath href="#ringPathOuter" startOffset="4%">中継 · R3L4Y · 中継 · R3L4Y ·</textPath>
        </text>
      </g>
      <!-- outer containment ring + radial graticule (rotates one way) -->
      <g stroke="#34d0a0" fill="none">
        <animateTransform attributeName="transform" type="rotate" from="0" to="360" dur="48s" repeatCount="indefinite"/>
        <circle r="82" stroke-width="1.5" opacity="0.95"/>
        <circle r="76" stroke-width="1.0" opacity="0.75"/>
        <g stroke-width="1.1" opacity="0.85">
          <line x1="0" y1="-82" x2="0" y2="-76"/><line x1="41" y1="-71" x2="38" y2="-66"/>
          <line x1="71" y1="-41" x2="66" y2="-38"/><line x1="82" y1="0" x2="76" y2="0"/>
          <line x1="71" y1="41" x2="66" y2="38"/><line x1="41" y1="71" x2="38" y2="66"/>
          <line x1="0" y1="82" x2="0" y2="76"/><line x1="-41" y1="71" x2="-38" y2="66"/>
          <line x1="-71" y1="41" x2="-66" y2="38"/><line x1="-82" y1="0" x2="-76" y2="0"/>
          <line x1="-71" y1="-41" x2="-66" y2="-38"/><line x1="-41" y1="-71" x2="-38" y2="-66"/>
        </g>
      </g>
      <!-- inner glyph / kanji band on a hidden ring (rotates the other way) -->
      <g>
        <animateTransform attributeName="transform" type="rotate" from="360" to="0" dur="32s" repeatCount="indefinite"/>
        <text font-size="11" fill="#34d0a0" opacity="0.9" font-family="'Noto Sans JP','Yu Gothic','Hiragino Sans',sans-serif">
          <textPath href="#ringPath" startOffset="6%">中継 · R3L4Y · 中継 ·</textPath>
        </text>
      </g>
      <!-- odd-count (5) bind-rune spikes from ring toward center -->
      <g stroke="#34d0a0" stroke-width="1.3" opacity="0.78">
        <path d="M0 -73 L0 -40 M-3.8 -47 L0 -40 L3.8 -47"/>
        <path d="M69.4 -22.5 L38 -12.3 M35.6 -18.2 L38 -12.3 L32.4 -13.4"/>
        <path d="M42.9 59 L23.5 32.3 M24.7 38.8 L23.5 32.3 L17.7 34.2"/>
        <path d="M-42.9 59 L-23.5 32.3 M-17.7 34.2 L-23.5 32.3 L-24.7 38.8"/>
        <path d="M-69.4 -22.5 L-38 -12.3 M-32.4 -13.4 L-38 -12.3 L-35.6 -18.2"/>
      </g>
      <!-- central CORE GLYPH: per-repo domain monogram, draws on (pathLength=200) -->
      <g stroke="#34d0a0" stroke-width="1.9" fill="none" stroke-linecap="round" stroke-linejoin="miter" transform="scale(1.85)">
        <path d="M-15 0 L-3 0 M-6 -3 L-3 0 L-6 3 M3 0 L15 0 M12 -3 L15 0 L12 3 M0 -8 A8 8 0 1 0 0.01 -8" pathLength="200" stroke-dasharray="200" stroke-dashoffset="0" filter="url(#glow)">
          <animate attributeName="stroke-dashoffset" from="200" to="0" dur="2.4s" begin="0s" fill="freeze" calcMode="spline" keySplines="0.6 0 0.2 1"/>
          <animate attributeName="stroke-width" values="1.9;1.9;3.0;1.9" keyTimes="0;0.85;0.9;1" dur="6s" begin="2.4s" repeatCount="indefinite"/>
        </path>
      </g>
      <!-- terminal pommel dots (goetic signature) -->
      <g fill="#34d0a0">
        <circle cx="0" cy="-40" r="2.4"/><circle cx="0" cy="40" r="2.4"/><circle cx="-35" cy="0" r="2.0"/><circle cx="35" cy="0" r="2.0"/>
      </g>
    </g>
  </g>
  <rect x="28" y="22" width="1224" height="452" rx="6" fill="url(#scan)"/>
  <rect x="28" y="22" width="1224" height="452" rx="6" fill="url(#vig)"/>
  <rect x="28" y="22" width="1224" height="452" rx="6" fill="url(#phosmask)" opacity="0.04"/>
  <rect x="28" y="22" width="1224" height="452" rx="6" fill="url(#glass)"/>
  <rect x="28" y="22" width="1224" height="452" rx="6" fill="none" stroke="#34d0a0" stroke-width="1" opacity="0.07" stroke-dasharray="22,3330" style="animation: edgeGlow 11s linear infinite;"/>
  <rect x="28" y="22" width="1224" height="452" rx="6" fill="none" stroke="#1a242b"/>

  <g stroke="#34d0a0" stroke-width="1.4" fill="none" opacity="0.55">
    <path d="M56 54 h26 M56 54 v26"/><path d="M1224 54 h-26 M1224 54 v26"/>
    <path d="M56 442 h26 M56 442 v-26"/><path d="M1224 442 h-26 M1224 442 v-26"/>
  </g>

    <text x="1204" y="98" text-anchor="end" font-size="40" fill="#34d0a0" opacity="0.13" font-family="'Noto Sans JP','Yu Gothic','Hiragino Sans',sans-serif" style="animation: kanjiPulse 6s ease-in-out infinite;">中継</text>
  <g style="animation: flicker 7s infinite;">
    <text x="640" y="74" text-anchor="middle" font-size="13" fill="#5a6b73" letter-spacing="7" filter="url(#phos)" style="font-family: 'Times New Roman','Times','Matisse',serif; font-weight: 700; transform: scaleX(0.82); transform-origin: 640px 74px; animation: titleBreathe 6s ease-in-out infinite;">I T A S H A . C O R P</text>
    <g font-size="60" font-weight="bold" letter-spacing="6" text-anchor="middle">
      <text x="643" y="140" fill="#6ee0bd" opacity="0.5" filter="url(#soft)" style="animation: titleGlitch 5.5s steps(1) infinite; transform-origin: 640px 140px;">R3L4Y</text>
      <text x="637" y="140" fill="#34d0a0" opacity="0.5" filter="url(#soft)" style="animation: titleGlitch 6.3s steps(1) 0.1s infinite; transform-origin: 640px 140px;">R3L4Y</text>
      <text x="640" y="140" fill="#e9f7ff" filter="url(#glow)" style="animation: titleBreathe 4s ease-in-out infinite;">R3L4Y</text>
    </g>
    <text x="640" y="172" text-anchor="middle" font-size="14" fill="#34d0a0" letter-spacing="3" filter="url(#phos)">mcp tool relay</text>

    <g filter="url(#phos)">
      <text x="64" y="222" font-size="12" fill="#5a6b73">RELAY-CORE --boot ───────────────────────</text>
      <text x="84" y="250" font-size="12.5" fill="#34d0a0" xml:space="preserve" style="animation: bootReveal 0.35s ease-out 0.2s both, linePulse 3.6s ease-in-out 0.0s infinite;"><tspan>&gt; load mcp servers</tspan><tspan dx="14" fill="#6fb89a" style="animation: okPulse 2s ease-in-out 0.6s infinite;">[ OK ]</tspan></text>
      <text x="84" y="276" font-size="12.5" fill="#34d0a0" xml:space="preserve" style="animation: bootReveal 0.35s ease-out 0.5s both, linePulse 3.6s ease-in-out 0.4s infinite;"><tspan>&gt; vet manifests</tspan><tspan dx="14" fill="#6fb89a" style="animation: okPulse 2s ease-in-out 1.0s infinite;">[ OK ]</tspan></text>
      <text x="84" y="302" font-size="12.5" fill="#34d0a0" xml:space="preserve" style="animation: bootReveal 0.35s ease-out 0.8s both, linePulse 3.6s ease-in-out 0.8s infinite;"><tspan>&gt; open transport</tspan><tspan dx="14" fill="#6fb89a" style="animation: okPulse 2s ease-in-out 1.4s infinite;">[ OK ]</tspan></text>
      <text x="84" y="328" font-size="12.5" fill="#34d0a0" xml:space="preserve" style="animation: bootReveal 0.35s ease-out 1.1s both, linePulse 3.6s ease-in-out 1.2s infinite;"><tspan>&gt; relay tool-call</tspan><tspan dx="14" fill="#6fb89a" style="animation: okPulse 2s ease-in-out 1.8s infinite;">[ OK ]</tspan></text>
      <text x="84" y="354" font-size="12.5" fill="#34d0a0" xml:space="preserve" style="animation: bootReveal 0.35s ease-out 1.4s both, linePulse 3.6s ease-in-out 1.6s infinite;"><tspan>&gt; log invocation</tspan><tspan dx="14" fill="#6fb89a" style="animation: okPulse 2s ease-in-out 2.2s infinite;">[ OK ]</tspan></text>
      <text x="64" y="382" font-size="12" fill="#5a6b73">────────────────────────────────────────────</text>
      <text x="64" y="416" font-size="13" fill="#6fb89a">root@itasha:relay$<tspan dx="6" fill="#34d0a0" style="animation: curBlink 1.1s step-end infinite;">█</tspan></text>
      <text x="64" y="448" font-size="11" fill="#5a6b73" letter-spacing="2">local · vetted · sandboxed</text>
    </g>

    <!-- ============================================================ -->
    <!-- WIDE RIGHT-SIDE INSTRUMENT CLUSTER (uses the right third)     -->
    <!-- Layered: oscilloscope/ECG waveform w/ traveling trace-dot     -->
    <!-- (animateMotion+mpath) + elliptical radar sweep w/ blips +     -->
    <!-- spectrum-bar equalizer + node-graph + per-repo RELAY // hop chain      -->
    <!-- status panel. All load-bearing motion is SMIL (GitHub <img>). -->
    <!-- ============================================================ -->
    <g transform="translate(830, 206)" style="animation: flicker 9s infinite;" opacity="0.92">
      <text x="20" y="20" fill="#34d0a0" font-size="8.5" letter-spacing="1.6" opacity="0.7">RELAY // hop chain</text>

      <!-- (1) oscilloscope / ECG waveform with traveling trace dot -->
      <g>
        <rect x="20" y="32" width="356" height="64" rx="3" fill="none" stroke="#34d0a0" stroke-width="0.5" opacity="0.25"/>
        <line x1="20" y1="64" x2="376" y2="64" stroke="#34d0a0" stroke-width="0.4" opacity="0.18"/>
        <path id="wave" d="M20 64 L70 64 L82 64 L92 40 L104 90 L116 52 L128 64 L196 64 L208 64 L218 46 L230 84 L242 64 L320 64 L332 64 L344 50 L356 78 L376 64"
              fill="none" stroke="#34d0a0" stroke-width="1.1" opacity="0.85" filter="url(#phos)"/>
        <circle r="2.2" fill="#e9f7ff" filter="url(#glow)">
          <animateMotion dur="3.4s" repeatCount="indefinite" rotate="auto"><mpath href="#wave"/></animateMotion>
        </circle>
        <circle r="1.4" fill="#34d0a0">
          <animateMotion dur="3.4s" begin="0.5s" repeatCount="indefinite"><mpath href="#wave"/></animateMotion>
        </circle>
      </g>

      <!-- (2) elliptical radar sweep + staggered blips -->
      <g transform="translate(70, 174)">
        <ellipse rx="62" ry="40" fill="none" stroke="#34d0a0" stroke-width="0.5" opacity="0.3"/>
        <ellipse rx="40" ry="26" fill="none" stroke="#34d0a0" stroke-width="0.4" opacity="0.22"/>
        <ellipse rx="18" ry="12" fill="none" stroke="#34d0a0" stroke-width="0.4" opacity="0.18"/>
        <g opacity="0.55">
          <path d="M0 0 L62 0 A62 40 0 0 1 31 34.6 Z" fill="url(#radarSweep)">
            <animateTransform attributeName="transform" type="rotate" from="0" to="360" dur="5s" repeatCount="indefinite"/>
          </path>
        </g>
        <circle cx="34" cy="-14" r="1.8" fill="#34d0a0"><animate attributeName="opacity" values="0;1;0" dur="5s" begin="0.6s" repeatCount="indefinite"/></circle>
        <circle cx="-28" cy="18" r="1.8" fill="#34d0a0"><animate attributeName="opacity" values="0;1;0" dur="5s" begin="2.1s" repeatCount="indefinite"/></circle>
        <circle cx="14" cy="26" r="1.6" fill="#e9f7ff"><animate attributeName="opacity" values="0;1;0" dur="5s" begin="3.4s" repeatCount="indefinite"/></circle>
        <circle r="2" fill="#34d0a0" filter="url(#glow)"/>
      </g>

      <!-- (3) spectrum-bar equalizer + status panel (per-repo motif) -->
      <g transform="translate(196, 132)">
        <g fill="#34d0a0" opacity="0.7">
          <rect x="0" y="44" width="4" height="12"><animate attributeName="height" values="6;30;10;22;6" dur="2.2s" repeatCount="indefinite"/><animate attributeName="y" values="50;26;46;34;50" dur="2.2s" repeatCount="indefinite"/></rect>
          <rect x="8" y="44" width="4" height="20"><animate attributeName="height" values="14;6;28;12;14" dur="2.6s" repeatCount="indefinite"/><animate attributeName="y" values="42;50;28;44;42" dur="2.6s" repeatCount="indefinite"/></rect>
          <rect x="16" y="44" width="4" height="8"><animate attributeName="height" values="24;10;18;32;24" dur="2.0s" repeatCount="indefinite"/><animate attributeName="y" values="32;46;38;24;32" dur="2.0s" repeatCount="indefinite"/></rect>
          <rect x="24" y="44" width="4" height="26"><animate attributeName="height" values="8;26;14;30;8" dur="2.8s" repeatCount="indefinite"/><animate attributeName="y" values="48;30;42;26;48" dur="2.8s" repeatCount="indefinite"/></rect>
          <rect x="32" y="44" width="4" height="16"><animate attributeName="height" values="20;8;30;12;20" dur="2.4s" repeatCount="indefinite"/><animate attributeName="y" values="36;48;26;44;36" dur="2.4s" repeatCount="indefinite"/></rect>
          <rect x="40" y="44" width="4" height="22"><animate attributeName="height" values="10;28;8;24;10" dur="2.1s" repeatCount="indefinite"/><animate attributeName="y" values="46;28;48;32;46" dur="2.1s" repeatCount="indefinite"/></rect>
        </g>
        <g transform="translate(0, 64)" filter="url(#phos)">
          <rect x="0" y="0" width="180" height="44" rx="3" fill="none" stroke="#34d0a0" stroke-width="0.7" opacity="0.3"/>
          <text x="10" y="15" font-size="8.5" fill="#34d0a0" letter-spacing="1.2">RELAY</text>
          <text x="170" y="15" text-anchor="end" font-size="7.5" fill="#6fb89a"><animate attributeName="opacity" values="0.5;1;0.5" dur="2s" repeatCount="indefinite"/>RELAYING</text>
          <line x1="10" y1="22" x2="170" y2="22" stroke="#5a6b73" stroke-width="0.5" opacity="0.4"/>
          <text x="10" y="36" font-size="8" fill="#c8d6dc">servers</text>
          <text x="170" y="36" text-anchor="end" font-size="7.5" fill="#34d0a0" letter-spacing="0.6">vetted</text>
        </g>
      </g>

      <!-- (4) node-graph w/ traveling pulses along edges (staggered SMIL) -->
      <g transform="translate(70, 174)" filter="url(#phos)">
        <g stroke="#34d0a0" stroke-width="0.7" opacity="0.3">
          <line id="e1" x1="0" y1="0" x2="-44" y2="-22"/><line id="e2" x1="0" y1="0" x2="44" y2="-20"/>
          <line id="e3" x1="0" y1="0" x2="-30" y2="22"/>
        </g>
        <g fill="#34d0a0">
          <circle cx="-44" cy="-22" r="2.4" style="animation: nodeBlink 3s ease-in-out 0s infinite;"/>
          <circle cx="44" cy="-20" r="2.4" style="animation: nodeBlink 3s ease-in-out 0.9s infinite;"/>
          <circle cx="-30" cy="22" r="2.4" style="animation: nodeBlink 3s ease-in-out 1.7s infinite;"/>
        </g>
        <circle r="1.6" fill="#e9f7ff"><animateMotion dur="2.6s" begin="0s" repeatCount="indefinite"><mpath href="#e1"/></animateMotion></circle>
        <circle r="1.6" fill="#e9f7ff"><animateMotion dur="2.6s" begin="0.7s" repeatCount="indefinite"><mpath href="#e2"/></animateMotion></circle>
        <circle r="1.6" fill="#e9f7ff"><animateMotion dur="2.6s" begin="1.3s" repeatCount="indefinite"><mpath href="#e3"/></animateMotion></circle>
      </g>
    </g>
  </g>

  <g>
    <circle cx="56" cy="487" r="3.5" fill="#6fb89a" opacity="0.7" style="animation: heartbeat 2.4s ease-in-out infinite; transform-origin: 56px 487px;"/>
    <circle cx="71" cy="487" r="3" fill="#34d0a0" opacity="0.45"/>
    <circle cx="86" cy="487" r="3" fill="#6ee0bd" opacity="0.4"/>
    <text x="108" y="487" font-size="9" fill="#3a4a52" letter-spacing="3.2" dominant-baseline="central">ITASHA.CORP</text>
    <text x="640" y="487" font-size="9" fill="#3a4a52" letter-spacing="3" dominant-baseline="central" text-anchor="middle">RELAY-CORE · present day · present time</text>
    <text x="1208" y="487" font-size="9" fill="#3a4a52" letter-spacing="2.4" dominant-baseline="central" text-anchor="end">CRT-IC v3</text>
    <circle cx="1224" cy="487" r="4" fill="#6fb89a" opacity="0.5"/>
    <circle cx="1224" cy="487" r="2" fill="#6fb89a" opacity="0.95" style="animation: heartbeat 2.4s ease-in-out infinite; transform-origin: 1224px 487px;"/>
  </g>
  <rect x="28" y="22" width="1224" height="452" rx="6" fill="#050608" opacity="0" style="animation: crtBlank 14s ease-in-out infinite;"/>
  <rect x="28" y="247.0" width="1224" height="3" fill="#e9f7ff" opacity="0" style="animation: crtLine 14s ease-in-out infinite; transform-origin: 640px 248.5px;"/>
</svg>
